<svg width="1em" height="1em" viewBox="0 0 22 22" fill="none" xmlns="http://www.w3.org/2000/svg">
  <path fill-rule="evenodd" clip-rule="evenodd" d="M18.5757 12.8802C19.0392 12.5391 19.1382 11.888 18.797 11.4245C18.4559 10.9609 17.8048 10.862 17.3413 11.2031L14.2241 13.5H11.0834C10.8542 13.5 10.6667 13.3125 10.6667 13.0833C10.6667 12.8542 10.8542 12.6667 11.0834 12.6667H13.1668C13.6277 12.6667 14.0001 12.2943 14.0001 11.8333C14.0001 11.3724 13.6277 11 13.1668 11H9.04433C8.2865 11 7.55212 11.2552 6.96097 11.7292L5.79169 12.6667H4.83334C4.3724 12.6667 4 13.0391 4 13.5V15.1667C4 15.6276 4.3724 16 4.83334 16H13.1772C13.935 16 14.6694 15.7578 15.2788 15.3099L18.5757 12.8802Z" fill="currentColor"/>
  <path d="M14 5.5L11 4L8 5.5V8.5L11 10L14 8.5V5.5Z" stroke="currentColor" stroke-linejoin="round"/>
  <path d="M8 5.5L11 7M11 7V10M11 7L14 5.5M12.5 4.75L9.5 6.25" stroke="currentColor" stroke-linecap="round" stroke-linejoin="round"/>
  <path d="M11 0C8.82441 0 6.69767 0.645138 4.88873 1.85383C3.07979 3.06253 1.66989 4.78049 0.83733 6.79048C0.00476611 8.80047 -0.21307 11.0122 0.211367 13.146C0.635804 15.2798 1.68345 17.2398 3.22183 18.7782C4.76021 20.3165 6.72022 21.3642 8.85401 21.7886C10.9878 22.2131 13.1995 21.9952 15.2095 21.1627C17.2195 20.3301 18.9375 18.9202 20.1462 17.1113C21.3549 15.3023 22 13.1756 22 11C22 8.08262 20.8411 5.28472 18.7782 3.22182C16.7153 1.15893 13.9174 0 11 0ZM1.375 11C1.37566 8.68717 2.21328 6.45271 3.73313 4.70937L17.2906 18.2669C15.8963 19.4709 14.1857 20.2495 12.362 20.5102C10.5383 20.7709 8.67814 20.5027 7.00232 19.7376C5.3265 18.9724 3.90548 17.7424 2.90798 16.1936C1.91049 14.6448 1.37844 12.8422 1.375 11ZM18.2669 17.2906L4.70938 3.73312C6.55419 2.1917 8.90905 1.39645 11.3107 1.50382C13.7123 1.61119 15.9868 2.61341 17.6867 4.31331C19.3866 6.01321 20.3888 8.28771 20.4962 10.6893C20.6036 13.0909 19.8083 15.4458 18.2669 17.2906Z" fill="currentColor"/>
</svg>
