<svg width="1em" height="1em" viewBox="0 0 12 12" fill="none"
     class="flex-shrink-0 text-gray-500 transition duration-75 group-hover:text-gray-900 dark:text-gray-400 dark:group-hover:text-white"
     xmlns="http://www.w3.org/2000/svg">
  <path
    d="M9 9.5C9.41667 9.5 9.77083 9.35417 10.0625 9.0625C10.3542 8.77083 10.5 8.41667 10.5 8C10.775 8 11.0103 7.90217 11.206 7.7065C11.4017 7.51083 11.4997 7.27533 11.5 7V3.5C11.5 3.225 11.402 2.98967 11.206 2.794C11.01 2.59833 10.7747 2.50033 10.5 2.5H3.9125C3.77917 2.5 3.652 2.525 3.531 2.575C3.41 2.625 3.30383 2.69583 3.2125 2.7875L0.7875 5.2125C0.695834 5.30417 0.625 5.4105 0.575 5.5315C0.525 5.6525 0.5 5.7795 0.5 5.9125V7C0.5 7.275 0.597833 7.5105 0.7935 7.7065C0.989167 7.9025 1.22467 8.00033 1.5 8C1.5 8.41667 1.64583 8.77083 1.9375 9.0625C2.22917 9.35417 2.58333 9.5 3 9.5C3.41667 9.5 3.77083 9.35417 4.0625 9.0625C4.35417 8.77083 4.5 8.41667 4.5 8H7.5C7.5 8.41667 7.64583 8.77083 7.9375 9.0625C8.22917 9.35417 8.58333 9.5 9 9.5ZM4.5 5H2.5L4 3.5H4.5V5ZM7.5 5H5.5V3.5H7.5V5ZM10.5 5H8.5V3.5H10.5V5ZM9 8.625C8.825 8.625 8.677 8.5645 8.556 8.4435C8.435 8.3225 8.37467 8.17467 8.375 8C8.375 7.825 8.4355 7.677 8.5565 7.556C8.6775 7.435 8.82533 7.37467 9 7.375C9.175 7.375 9.323 7.4355 9.444 7.5565C9.565 7.6775 9.62533 7.82533 9.625 8C9.625 8.175 9.5645 8.323 9.4435 8.444C9.3225 8.565 9.17467 8.62533 9 8.625ZM3 8.625C2.825 8.625 2.677 8.5645 2.556 8.4435C2.435 8.3225 2.37467 8.17467 2.375 8C2.375 7.825 2.4355 7.677 2.5565 7.556C2.6775 7.435 2.82533 7.37467 3 7.375C3.175 7.375 3.323 7.4355 3.444 7.5565C3.565 7.6775 3.62533 7.82533 3.625 8C3.625 8.175 3.5645 8.323 3.4435 8.444C3.3225 8.565 3.17467 8.62533 3 8.625Z"
    fill="currentColor"/>
</svg>
