<svg width="1em" height="1em" viewBox="0 0 79 79" fill="none" xmlns="http://www.w3.org/2000/svg">
  <mask id="mask0_331_55" style="mask-type:luminance" maskUnits="userSpaceOnUse" x="0" y="0" width="79" height="79">
    <path d="M78.657 0H0V78.657H78.657V0Z" fill="white"/>
  </mask>
  <g mask="url(#mask0_331_55)">
    <path d="M22.154 64.16C17.4712 64.1682 12.8666 62.9601 8.791 60.654C8.768 60.643 8.74601 60.643 8.73401 60.632H8.72301C8.71723 60.6251 8.70895 60.6208 8.7 60.62C7.9979 60.2281 7.31634 59.8006 6.65801 59.339H6.64701C5.92876 58.8448 5.23588 58.3148 4.571 57.751C2.34864 53.5697 0.907082 49.0183 0.317004 44.32C0.108046 42.6641 0.00217408 40.9969 2.96934e-06 39.328C-0.00199844 34.1753 1.00777 29.0725 2.972 24.309C2.99095 24.2824 3.00266 24.2514 3.006 24.219C3.01218 24.1995 3.01953 24.1805 3.028 24.162C6.92785 14.865 14.2378 7.41299 23.458 3.33496C23.231 3.66396 23.005 4.00396 22.789 4.35596L22.778 4.36696V4.37796C22.7735 4.39808 22.7657 4.41733 22.755 4.43496C20.0251 8.85481 18.6133 13.962 18.6856 19.1564C18.7579 24.3509 20.3112 29.4168 23.163 33.759C23.1697 33.7644 23.1741 33.7723 23.175 33.781C23.176 33.7896 23.1799 33.7977 23.186 33.804C23.56 34.348 23.923 34.882 24.332 35.392C24.332 35.404 24.332 35.415 24.343 35.415L24.899 36.39C24.8997 36.3987 24.9036 36.407 24.91 36.413L24.944 36.447L26.782 39.647L34.768 53.486C35.2232 54.2631 35.8697 54.9108 36.646 55.3675C37.4223 55.8242 38.3026 56.0746 39.203 56.095C39.2252 56.1015 39.248 56.1055 39.271 56.107C40.4394 56.1226 41.5802 55.7517 42.516 55.052C41.7535 55.9108 40.9347 56.7179 40.065 57.468C40.041 57.4901 40.0145 57.5092 39.986 57.525C35.4537 61.4488 29.7501 63.7621 23.765 64.104C23.231 64.137 22.698 64.16 22.154 64.16Z" fill="url(#paint0_linear_331_55)"/>
    <path d="M76.6257 51.829C76.5807 51.375 76.5127 50.929 76.4447 50.491C76.4344 50.4583 76.4267 50.4249 76.4217 50.391C75.4577 44.5554 72.6228 39.1914 68.3444 35.1075C64.0659 31.0237 58.5758 28.4414 52.7017 27.75C52.6764 27.7409 52.6496 27.7368 52.6227 27.738C51.7827 27.638 50.9327 27.579 50.0707 27.557C50.0184 27.5466 49.965 27.5426 49.9117 27.545C49.8592 27.5362 49.8059 27.5325 49.7527 27.534H28.9027C28.088 27.5274 27.2834 27.7138 26.5547 28.078C25.9142 28.3975 25.3457 28.8444 24.8838 29.3911C24.4218 29.9379 24.0763 30.5731 23.8682 31.258C23.6602 31.9428 23.594 32.6629 23.6736 33.3742C23.7533 34.0855 23.9772 34.7731 24.3317 35.395C23.9227 34.885 23.5597 34.351 23.1857 33.807C23.1796 33.8007 23.1757 33.7926 23.1747 33.784C23.1737 33.7753 23.1694 33.7674 23.1627 33.762C19.5147 28.1896 18.019 21.4802 18.9547 14.886C19.0337 14.318 19.1357 13.751 19.2607 13.196C19.8999 10.0935 21.0828 7.12845 22.7547 4.43797C22.7654 4.42033 22.7732 4.40108 22.7777 4.38097V4.36997L22.7887 4.35896C23.0047 4.00696 23.2307 3.66697 23.4577 3.33797C28.4572 1.13163 33.863 -0.00436876 39.3277 0.00296497C40.2467 0.00296497 41.1537 0.0369655 42.0617 0.0939655C42.6517 0.138966 43.2417 0.183966 43.8317 0.251966C43.8686 0.26295 43.9064 0.270646 43.9447 0.274965C53.5111 1.39946 62.3314 5.99808 68.7306 13.1975C75.1297 20.3969 78.662 29.6957 78.6567 39.328C78.6612 42.6782 78.2302 46.0148 77.3747 49.254C77.3627 49.333 77.3517 49.39 77.3407 49.436C77.1247 50.252 76.8827 51.046 76.6257 51.829Z" fill="url(#paint1_linear_331_55)"/>
    <path d="M39.3283 78.657C38.1464 78.6633 36.9651 78.6065 35.7893 78.487C29.27 77.9056 22.9994 75.7041 17.5474 72.0827C12.0954 68.4613 7.63492 63.5348 4.57129 57.751C5.23617 58.3149 5.92905 58.8449 6.64729 59.339H6.65829C7.31663 59.8006 7.99818 60.2281 8.70029 60.62C8.70924 60.6208 8.71752 60.6251 8.7233 60.632H8.7343C8.7463 60.643 8.76829 60.643 8.79129 60.654C12.8669 62.9601 17.4715 64.1682 22.1543 64.16C22.6983 64.16 23.2313 64.137 23.7653 64.103C29.7493 63.7605 35.4518 61.4472 39.9833 57.524C40.0118 57.5082 40.0383 57.4891 40.0623 57.467C40.932 56.7169 41.7508 55.9098 42.5133 55.051C43.0671 54.6252 43.5299 54.0927 43.8743 53.485L44.0553 53.19V53.178L47.2663 47.608L48.1963 45.986L54.2963 35.414C54.4948 35.0659 54.6544 34.697 54.7723 34.314C55.0033 33.5553 55.0591 32.7541 54.9357 31.9707C54.8122 31.1873 54.5126 30.4421 54.0595 29.7912C53.6064 29.1403 53.0115 28.6007 52.3196 28.2131C51.6278 27.8254 50.857 27.5997 50.0653 27.553C50.9273 27.575 51.7773 27.632 52.6173 27.734C52.6442 27.7328 52.671 27.7369 52.6963 27.746C58.5704 28.4374 64.0605 31.0197 68.3389 35.1036C72.6174 39.1874 75.4523 44.5514 76.4163 50.387C76.4213 50.4209 76.429 50.4543 76.4393 50.487C76.5073 50.929 76.5753 51.371 76.6203 51.825C75.0684 56.47 72.6512 60.7792 69.4963 64.525C65.8145 68.9519 61.2026 72.5132 55.9885 74.9557C50.7744 77.3982 45.0861 78.662 39.3283 78.657Z" fill="url(#paint2_linear_331_55)"/>
    <g style="mix-blend-mode:multiply" opacity="0.3">
      <path d="M22.1544 64.1601C17.4716 64.1683 12.867 62.9602 8.79138 60.6541C8.76838 60.6431 8.74639 60.6431 8.73439 60.6321H8.72339C8.71761 60.6252 8.70933 60.6209 8.70038 60.6201C7.99827 60.2282 7.31672 59.8007 6.65839 59.3391H6.64738C5.92914 58.845 5.23626 58.315 4.57138 57.7511C2.34902 53.5698 0.907461 49.0184 0.317383 44.3201C0.635383 44.5801 0.964387 44.8411 1.28139 45.0911C15.5524 56.2421 28.8354 56.0911 35.2904 55.0731C35.5514 55.0281 35.8004 54.9941 36.0384 54.9491C36.9365 55.6724 38.0503 56.0753 39.2034 56.0941C39.2255 56.1006 39.2483 56.1046 39.2714 56.1061C40.4398 56.1217 41.5806 55.7508 42.5164 55.0511C41.7539 55.9099 40.9351 56.717 40.0654 57.4671C40.0414 57.4892 40.0149 57.5083 39.9864 57.5241C35.4541 61.4479 29.7505 63.7613 23.7654 64.1031C23.2314 64.1371 22.6984 64.1601 22.1544 64.1601Z" fill="black"/>
    </g>
    <g style="mix-blend-mode:multiply" opacity="0.2">
      <path d="M69.5023 64.534C68.4257 53.0075 63.1922 42.2664 54.7783 34.315C55.0093 33.5563 55.0652 32.7551 54.9417 31.9717C54.8182 31.1882 54.5187 30.4431 54.0655 29.7922C53.6124 29.1413 53.0175 28.6017 52.3256 28.214C51.6338 27.8263 50.863 27.6006 50.0713 27.554C50.9333 27.576 51.7833 27.633 52.6233 27.735C52.6502 27.7338 52.677 27.7379 52.7023 27.747C58.5764 28.4384 64.0665 31.0207 68.345 35.1045C72.6234 39.1884 75.4583 44.5524 76.4223 50.388C76.4273 50.4218 76.435 50.4553 76.4453 50.488C76.5133 50.93 76.5813 51.372 76.6263 51.826C75.0753 56.4738 72.6581 60.7858 69.5023 64.534Z" fill="black"/>
    </g>
    <g style="mix-blend-mode:multiply" opacity="0.2">
      <path d="M24.3315 35.392C23.9225 34.87 23.5485 34.337 23.1745 33.781C23.1736 33.7724 23.1693 33.7645 23.1625 33.759C20.3067 29.4092 18.7532 24.3338 18.685 19.1307C18.6168 13.9276 20.0367 8.81327 22.7775 4.39003V4.36703L22.7885 4.35604C23.0045 4.00403 23.2305 3.66404 23.4575 3.33504C28.4571 1.1287 33.8628 -0.00729845 39.3275 3.52833e-05C40.2465 3.52833e-05 41.1535 0.0340349 42.0615 0.0910349C28.5055 10.13 26.6115 22.378 26.5545 28.078C25.9145 28.3976 25.3463 28.8443 24.8847 29.3909C24.423 29.9374 24.0776 30.5723 23.8696 31.2568C23.6616 31.9413 23.5952 32.661 23.6746 33.372C23.7541 34.083 23.9776 34.7703 24.3315 35.392Z" fill="black"/>
    </g>
    <g style="mix-blend-mode:screen" opacity="0.5">
      <path d="M77.3754 49.254C77.4543 48.823 77.6023 47.938 77.7753 46.679C78.1019 44.1711 78.2023 41.6389 78.0754 39.113C77.9991 37.4329 77.8248 35.7587 77.5534 34.099C77.2452 32.2616 76.8169 30.4464 76.2713 28.665C75.678 26.7652 74.9467 24.9113 74.0834 23.118C73.1948 21.2637 72.1634 19.4813 70.9984 17.787C69.8542 16.0978 68.5839 14.4976 67.1983 13C65.8365 11.5527 64.3814 10.1961 62.8423 8.93897C62.1043 8.30297 61.2994 7.80397 60.5614 7.22597C59.7794 6.71497 59.0414 6.18197 58.2704 5.73997C57.4994 5.29797 56.7614 4.83197 56.0014 4.46897C55.2644 4.06897 54.5383 3.70897 53.8123 3.40297C53.1123 3.07397 52.4174 2.77897 51.7474 2.54097C51.0784 2.26897 50.4543 2.01897 49.8423 1.82597C48.6423 1.40597 47.5624 1.12597 46.6654 0.895973C45.7684 0.665973 45.0554 0.532973 44.5784 0.419973C44.2724 0.350973 44.0564 0.294973 43.9434 0.271973C53.5106 1.39608 62.3318 5.99492 68.7315 13.195C75.1311 20.3951 78.6634 29.6949 78.6574 39.328C78.6618 42.6782 78.2309 46.0148 77.3754 49.254Z" fill="white"/>
    </g>
    <g style="mix-blend-mode:multiply" opacity="0.3">
      <path d="M39.328 78.6571C38.1462 78.6634 36.9648 78.6066 35.789 78.4871C26.8663 77.6915 18.4836 73.8695 12.0317 67.6549C5.57974 61.4403 1.44629 53.2068 0.317004 44.3201C0.108046 42.6643 0.00217408 40.997 2.96934e-06 39.3281C-0.00199844 34.1755 1.00777 29.0726 2.972 24.3091C2.847 24.6841 2.49501 25.7391 2.07201 27.3491C1.32213 30.1445 0.873583 33.0122 0.734012 35.9031C0.573217 38.9764 0.755669 42.0582 1.278 45.0911C1.437 46.0331 1.63 46.9971 1.868 47.9611C2.41353 50.1671 3.14619 52.3226 4.058 54.4041C4.523 55.4591 5.04501 56.5481 5.60001 57.5241C5.94101 58.1361 6.292 58.7491 6.644 59.3391H6.655C6.916 59.7581 7.17701 60.1671 7.44901 60.5641C8.73355 62.52 10.1997 64.3505 11.828 66.0311C13.3918 67.6833 15.0984 69.1942 16.928 70.5461C18.6378 71.8168 20.4431 72.9535 22.328 73.9461C23.247 74.4001 24.121 74.8541 25.017 75.2171C25.459 75.4101 25.89 75.5911 26.317 75.7731C26.748 75.9321 27.179 76.0901 27.599 76.2381C28.427 76.5671 29.267 76.7821 30.038 77.0211C30.821 77.2811 31.581 77.4401 32.284 77.6101C32.9458 77.7812 33.616 77.9177 34.292 78.0191C34.916 78.1191 35.492 78.2451 36.005 78.2911C38.126 78.5101 39.328 78.6571 39.328 78.6571Z" fill="black"/>
    </g>
    <g style="mix-blend-mode:multiply" opacity="0.3">
      <path d="M38.1481 56.178C37.1103 56.1137 36.1169 55.7337 35.3011 55.089L35.2901 55.077C34.7405 54.6481 34.275 54.1213 33.9171 53.523C33.5321 52.967 33.1231 52.378 32.7261 51.754C32.3291 51.13 31.9091 50.495 31.5121 49.825C31.1151 49.155 30.7181 48.487 30.3121 47.806C29.9261 47.126 29.5521 46.434 29.1661 45.753C28.7801 45.072 28.4521 44.392 28.1111 43.745C27.4311 42.429 26.8411 41.181 26.3641 40.092C25.8157 38.8934 25.331 37.6667 24.9121 36.417L24.9461 36.451L26.7841 39.651L34.7701 53.49C35.2253 54.2671 35.8719 54.9149 36.6481 55.3715C37.4244 55.8282 38.3047 56.0787 39.2051 56.099C39.2273 56.1055 39.2501 56.1096 39.2731 56.111C39.2731 56.111 39.1731 56.122 38.9901 56.156C38.7112 56.195 38.4287 56.2023 38.1481 56.178Z" fill="black"/>
    </g>
    <g style="mix-blend-mode:multiply" opacity="0.3">
      <path d="M23.1911 33.8011C23.1911 33.8011 22.8611 33.4391 22.3401 32.7541C21.6189 31.8012 20.9832 30.7866 20.4401 29.7221C19.6635 28.2063 19.0549 26.6101 18.6251 24.9621C18.3841 24.0284 18.1978 23.0815 18.0671 22.1261C17.9399 21.1377 17.8651 20.1433 17.8431 19.1471C17.8301 18.6411 17.8591 18.1471 17.8731 17.6611C17.9041 17.1551 17.9321 16.6511 17.9881 16.1611C18.0846 15.2017 18.2456 14.2498 18.4701 13.3121C18.8474 11.6504 19.4123 10.0371 20.1541 8.50307C20.6675 7.42406 21.2756 6.39269 21.9711 5.42107C22.4711 4.72107 22.7951 4.35107 22.7951 4.35107L22.2671 5.58607C21.9371 6.37007 21.4951 7.49507 21.0621 8.86407C20.5755 10.4143 20.2005 11.9973 19.9401 13.6011C19.7861 14.4741 19.7061 15.3871 19.6241 16.3111C19.5801 16.7761 19.5651 17.2351 19.5451 17.6961C19.5401 18.1801 19.5251 18.6561 19.5451 19.1221C19.563 20.9707 19.7434 22.8141 20.0841 24.6311C20.2701 25.4961 20.4341 26.3421 20.6601 27.1311C20.8861 27.9201 21.1091 28.6581 21.3351 29.3401C21.8101 30.6931 22.2801 31.8111 22.6351 32.5801L23.1911 33.8011Z" fill="black"/>
    </g>
    <g style="mix-blend-mode:multiply" opacity="0.3">
      <path d="M8.69727 60.6221C8.69727 60.6221 9.18826 60.8311 10.0483 61.1481C10.9083 61.4651 12.1413 61.8981 13.6403 62.2941C15.3394 62.734 17.0709 63.0379 18.8183 63.2031C19.7713 63.3031 20.7613 63.3211 21.7633 63.3331H22.1403L22.5033 63.3171L23.2853 63.2821L23.6773 63.2641L24.0303 63.2351L24.8143 63.1651C25.8172 63.071 26.8144 62.9224 27.8013 62.7201C28.7803 62.5091 29.7463 62.2961 30.6593 62.0061C32.3392 61.4984 33.9753 60.8553 35.5513 60.0831C36.6805 59.5285 37.78 58.9153 38.8453 58.2461L40.0663 57.4651C40.0663 57.4651 39.9763 57.5651 39.8063 57.7421C39.6363 57.9191 39.3983 58.2031 39.0533 58.5131C38.1252 59.4092 37.1166 60.2179 36.0403 60.9291C35.3209 61.4134 34.5736 61.8548 33.8023 62.2511C32.0099 63.1723 30.111 63.8692 28.1483 64.3261C27.0927 64.5652 26.0243 64.7435 24.9483 64.8601L24.1633 64.9151L23.7313 64.9421L23.3383 64.9521L22.5563 64.9721L22.1403 64.9821L21.7403 64.9721C18.8551 64.8911 16.0075 64.2962 13.3313 63.2151C12.1363 62.7284 10.9868 62.1368 9.89626 61.4471C9.49626 61.2031 9.20726 60.9861 9.00626 60.8421L8.69727 60.6221Z" fill="black"/>
    </g>
    <g style="mix-blend-mode:multiply" opacity="0.3">
      <path d="M52.6025 27.7231L53.0025 27.7311C53.2635 27.7421 53.6465 27.7251 54.1335 27.7761C55.4901 27.8685 56.8348 28.0895 58.1496 28.4361C60.0248 28.9271 61.8338 29.6426 63.5375 30.5671C65.5031 31.6343 67.3188 32.9568 68.9375 34.5001C69.7516 35.2871 70.5157 36.124 71.2256 37.0061C73.1292 39.3785 74.573 42.0856 75.4825 44.9881C75.8911 46.2841 76.1747 47.6162 76.3295 48.9661C76.4035 49.4491 76.4005 49.8381 76.4295 50.0971L76.4555 50.4971C76.4555 50.4971 76.3005 49.9591 76.0035 49.0391C75.5981 47.7796 75.121 46.5442 74.5746 45.3391C73.8056 43.658 72.8946 42.0454 71.8515 40.5191C71.2785 39.6881 70.6435 38.8621 69.9635 38.0541C69.2783 37.2341 68.5436 36.4566 67.7635 35.7261C67.0018 34.9812 66.195 34.2839 65.3475 33.6381C64.4995 33.0091 63.6655 32.3821 62.7985 31.8651C61.225 30.8945 59.5725 30.0582 57.8586 29.3651C56.6247 28.8749 55.364 28.4553 54.0826 28.1081L52.6025 27.7231Z" fill="black"/>
    </g>
  </g>
  <defs>
    <linearGradient id="paint0_linear_331_55" x1="-1326.75" y1="29.4289" x2="-1271.36" y2="29.4289" gradientUnits="userSpaceOnUse">
      <stop stop-color="#F804DE"/>
      <stop offset="0.074" stop-color="#F803CC"/>
      <stop offset="0.293" stop-color="#F9029D"/>
      <stop offset="0.501" stop-color="#FA0178"/>
      <stop offset="0.695" stop-color="#FB005D"/>
      <stop offset="0.867" stop-color="#FB004D"/>
      <stop offset="1" stop-color="#FC0048"/>
    </linearGradient>
    <linearGradient id="paint1_linear_331_55" x1="-1319.04" y1="31.565" x2="-1309.03" y2="-21.9561" gradientUnits="userSpaceOnUse">
      <stop stop-color="#FCFC53"/>
      <stop offset="1" stop-color="#F8A700"/>
    </linearGradient>
    <linearGradient id="paint2_linear_331_55" x1="-1268.68" y1="40.1758" x2="-1279.63" y2="-24.1187" gradientUnits="userSpaceOnUse">
      <stop stop-color="#00F3FF"/>
      <stop offset="0.238" stop-color="#00EFFC"/>
      <stop offset="0.44" stop-color="#00E5F4"/>
      <stop offset="0.629" stop-color="#00D3E7"/>
      <stop offset="0.81" stop-color="#00BAD4"/>
      <stop offset="0.983" stop-color="#009BBC"/>
      <stop offset="1" stop-color="#0098BA"/>
    </linearGradient>
  </defs>
</svg>
