<svg width="1em" height="1em"

     viewBox="0 0 14 12" fill="none" xmlns="http://www.w3.org/2000/svg">

  <g clip-path="url(#clip0_335_2)">
    <path fill-rule="evenodd" clip-rule="evenodd"
          d="M13.148 9.19219C13.5652 8.88516 13.6542 8.29922 13.3472 7.88203C13.0402 7.46484 12.4542 7.37578 12.037 7.68281L9.23156 9.75H6.405C6.19875 9.75 6.03 9.58125 6.03 9.375C6.03 9.16875 6.19875 9 6.405 9H8.28C8.69484 9 9.03 8.66484 9.03 8.25C9.03 7.83516 8.69484 7.5 8.28 7.5H4.56984C3.88781 7.5 3.22687 7.72969 2.69484 8.15625L1.6425 9H0.779999C0.365155 9 0.0299988 9.33516 0.0299988 9.75V11.25C0.0299988 11.6648 0.365155 12 0.779999 12H8.28937C8.97141 12 9.63234 11.782 10.1808 11.3789L13.148 9.19219Z"
          fill="currentColor"/>
    <path d="M10 2.25L7.5 1L5 2.25V4.75L7.5 6L10 4.75V2.25Z" stroke="currentColor" stroke-linejoin="round"/>
    <path d="M5 2.25L7.5 3.5M7.5 3.5V6M7.5 3.5L10 2.25M8.75 1.625L6.25 2.875" stroke="currentColor" stroke-linecap="round"
          stroke-linejoin="round"/>
  </g>
  <defs>
    <clipPath id="clip0_335_2">
      <rect width="1em" height="12" fill="currentColor"/>
    </clipPath>
  </defs>
</svg>
